#!OML:ASF X:\für Bonn\!DataBase\2005_08_11_Bastian_Final\c3d\Bastian.ASF
:FULLY-SPECIFIED
:DEGREES
199
root 1.33717 16.885 -14.8592 168.073 16.8261 -177.796
lowerback 14.1033 -4.01488 -5.76329
upperback 8.06747 -5.03609 -0.423731
thorax 1.15538 -2.31136 3.40838
lowerneck -8.26738 -0.821309 -1.23924
upperneck -7.13151 0.334051 12.6309
head -0.866723 0.541806 4.40646
rclavicle 6.04305e-014 3.4191e-014
rhumerus -45.6372 19.807 -103.294
rradius 108.345
rwrist 5.895
rhand -17.1005 14.1129
rfingers 7.12502
rthumb 9.13834 -15.6691
lclavicle 6.04305e-014 3.4191e-014
lhumerus -21.3115 -36.2768 101.011
lradius 104.014
lwrist 28.1424
lhand 0.860092 -25.3414
lfingers 7.12502
lthumb 26.4139 2.83833
rfemur -24.7702 7.20763 21.439
rtibia 47.6569
rfoot -7.06496 -9.24651
rtoes 0.0641917
lfemur 12.0952 6.74171 -10.6351
ltibia 34.0811
lfoot -21.9224 -5.76931
ltoes -24.0849
200
root 1.29915 16.9194 -14.751 168.137 16.4893 -177.714
lowerback 14.1783 -3.9703 -5.63859
upperback 8.15044 -4.94328 -0.441493
thorax 1.18059 -2.25329 3.31277
lowerneck -8.41504 -0.985232 -1.34733
upperneck -7.39429 0.178078 12.7212
head -0.914651 0.475011 4.45974
rclavicle 9.64106e-015 2.94201e-014
rhumerus -45.5084 19.9667 -103.457
rradius 108.454
rwrist 5.85875
rhand -17.2735 14.2321
rfingers 7.12502
rthumb 8.97147 -15.5571
lclavicle 9.64106e-015 2.94201e-014
lhumerus -21.6423 -37.0685 101.386
lradius 103.515
lwrist 28.1743
lhand 0.648207 -25.3958
lfingers 7.12502
lthumb 26.2111 2.81423
rfemur -24.3257 5.8712 21.6889
rtibia 48.6022
rfoot -7.58215 -9.3759
rtoes -0.875541
lfemur 11.4515 6.35421 -10.8113
ltibia 34.2474
lfoot -21.6179 -5.60126
ltoes -23.4111
201
root 1.26256 16.9538 -14.6428 168.216 16.1323 -177.606
lowerback 14.2668 -3.92573 -5.42865
upperback 8.20693 -4.84567 -0.476421
thorax 1.15973 -2.18877 3.15352
lowerneck -8.5634 -1.15477 -1.41427
upperneck -7.61429 0.00397657 12.7878
head -0.946777 0.399073 4.49541
rclavicle 6.33129e-014 6.36111e-015
rhumerus -45.4037 20.0631 -103.67
rradius 108.571
rwrist 5.84466
rhand -17.4225 14.3394
rfingers 7.12502
rthumb 8.82765 -15.456
lclavicle 6.33129e-014 6.36111e-015
lhumerus -21.9582 -37.8689 101.684
lradius 103.02
lwrist 28.2722
lhand 0.251358 -25.3527
lfingers 7.12502
lthumb 25.8311 2.91327
rfemur -23.8652 4.46516 21.959
rtibia 49.621
rfoot -8.06855 -9.43223
rtoes -2.57325
lfemur 10.7546 5.94406 -10.9539
ltibia 34.4775
lfoot -21.2621 -5.41608
ltoes -22.811
202
root 1.22827 16.9871 -14.536 168.279 15.7737 -177.508
lowerback 14.3281 -3.89172 -5.25207
upperback 8.27722 -4.76227 -0.487252
thorax 1.17592 -2.13391 3.0367
lowerneck -8.73826 -1.30194 -1.51573
upperneck -7.82658 -0.1422 12.8176
head -0.973726 0.338228 4.52499
rclavicle -6.04305e-014 4.05521e-014
rhumerus -45.2464 20.25 -103.827
rradius 108.679
rwrist 5.90003
rhand -17.6043 14.3998
rfingers 7.12502
rthumb 8.65224 -15.4029
lclavicle -6.04305e-014 4.05521e-014
lhumerus -22.2485 -38.511 101.964
lradius 102.543
lwrist 28.3905
lhand -0.299322 -25.2667
lfingers 7.12502
lthumb 25.3036 3.07492
rfemur -23.3429 3.32915 22.1961
rtibia 50.6903
rfoot -8.55749 -9.58258
rtoes -3.83795
lfemur 10.0417 5.55704 -11.0793
ltibia 34.7671
lfoot -20.9114 -5.2753
ltoes -22.3247
203
root 1.1952 17.02 -14.4295 168.348 15.3715 -177.449
lowerback 14.376 -3.84823 -5.09335
upperback 8.32364 -4.67204 -0.505466
thorax 1.17472 -2.07661 2.92116
lowerneck -8.92356 -1.45829 -1.59822
upperneck -7.99889 -0.310271 12.8235
head -0.983807 0.266876 4.54098
rclavicle 2.72335e-014 -1.98785e-014
rhumerus -45.0823 20.4014 -103.995
rradius 108.813
rwrist 5.99086
rhand -17.7434 14.3983
rfingers 7.12502
rthumb 8.518 -15.4099
lclavicle 2.72335e-014 -1.98785e-014
lhumerus -22.6474 -39.0475 102.262
lradius 102.156
lwrist 28.5144
lhand -0.893046 -25.1688
lfingers 7.12502
lthumb 24.7347 3.25204
rfemur -22.7941 2.39035 22.3602
rtibia 51.7834
rfoot -9.05589 -9.71739
rtoes -5.45422
lfemur 9.26859 5.1087 -11.2636
ltibia 35.1069
lfoot -20.5623 -5.08826
ltoes -21.9565
204
root 1.16428 17.0524 -14.323 168.45 14.9745 -177.344
lowerback 14.3857 -3.81401 -4.87133
upperback 8.36113 -4.58821 -0.521516
thorax 1.17917 -2.02164 2.77133
lowerneck -9.08193 -1.5934 -1.60045
upperneck -8.17887 -0.457967 12.7645
head -1.00341 0.202018 4.5173
rclavicle -1.0635e-014 -1.11319e-014
rhumerus -44.8669 20.5529 -104.144
rradius 108.944
rwrist 6.16801
rhand -17.8388 14.3249
rfingers 7.12502
rthumb 8.42591 -15.487
lclavicle -1.0635e-014 -1.11319e-014
lhumerus -23.1577 -39.4482 102.562
lradius 101.875
lwrist 28.6113
lhand -1.53982 -25.1191
lfingers 7.12502
lthumb 24.1147 3.38539
rfemur -22.2221 1.64868 22.5364
rtibia 52.8774
rfoot -9.59106 -9.71977
rtoes -6.64352
lfemur 8.45277 4.62769 -11.3967
ltibia 35.4785
lfoot -20.2256 -4.86031
ltoes -21.8731
205
root 1.13544 17.0835 -14.2173 168.568 14.5513 -177.267
lowerback 14.3371 -3.77515 -4.68311
upperback 8.40266 -4.50035 -0.535779
thorax 1.22256 -1.96737 2.63771
lowerneck -9.26325 -1.73681 -1.62236
upperneck -8.3478 -0.613463 12.7342
head -1.01467 0.136008 4.50772
rclavicle -6.57977e-014 1.74931e-014
rhumerus -44.6008 20.7011 -104.251
rradius 109.069
rwrist 6.47216
rhand -17.9339 14.2382
rfingers 7.12502
rthumb 8.33409 -15.5774
lclavicle -6.57977e-014 1.74931e-014
lhumerus -23.6724 -39.728 102.842
lradius 101.599
lwrist 28.6864
lhand -2.2147 -25.1051
lfingers 7.12502
lthumb 23.4675 3.48366
rfemur -21.6311 1.00303 22.6616
rtibia 53.9641
rfoot -10.0169 -9.56498
rtoes -7.92148
lfemur 7.59019 4.1149 -11.5655
ltibia 35.8797
lfoot -19.9165 -4.6166
ltoes -21.9365
206
root 1.10811 17.1111 -14.1116 168.696 14.1131 -177.187
lowerback 14.275 -3.73361 -4.46536
upperback 8.42566 -4.40925 -0.555446
thorax 1.2504 -1.91094 2.48166
lowerneck -9.40378 -1.88023 -1.63575
upperneck -8.52609 -0.771094 12.6769
head -1.03625 0.0662771 4.48637
rclavicle 1.07344e-014 -3.02153e-014
rhumerus -44.3149 20.8433 -104.348
rradius 109.219
rwrist 6.78127
rhand -17.9551 14.0867
rfingers 7.12502
rthumb 8.31369 -15.7297
lclavicle 1.07344e-014 -3.02153e-014
lhumerus -24.2278 -39.9339 103.128
lradius 101.295
lwrist 28.7873
lhand -2.87968 -25.1969
lfingers 7.12502
lthumb 22.8294 3.47203
rfemur -21.0015 0.430538 22.7794
rtibia 55.024
rfoot -10.3304 -9.33334
rtoes -9.19744
lfemur 6.71192 3.53839 -11.7407
ltibia 36.3035
lfoot -19.6 -4.33953
ltoes -22.0657
